# xmcd
#
# Track frame offsets: 
#        183
#        20268
#        41360
#        60060
#        81743
#        98978
#        115480
#        131903
#        154520
#        179883
#        195303
#
# Disc length: 2911 seconds
#
# Revision: 3
# Processed by: cddbd v1.5.2PL0 Copyright (c) Steve Scherf et al.
# Submitted via: ExactAudioCopyFreeDBPlugin 1.0
#
DISCID=8f0b5d0b
DTITLE=Larry McCray - Delta Hurricane
DYEAR=1993
DGENRE=Blues
TTITLE0=Delta Hurricane
TTITLE1=Adding Up
TTITLE2=Last Four Nickels
TTITLE3=Soul Shine
TTITLE4=Not That Much
TTITLE5=Last Hand Of The Night
TTITLE6=Witchin' Moon
TTITLE7=Blue River
TTITLE8=Hole In My Heart
TTITLE9=Three Straight Days Of Rain
TTITLE10=Blues In The City
EXTD=
EXTT0=
EXTT1=
EXTT2=
EXTT3=
EXTT4=
EXTT5=
EXTT6=
EXTT7=
EXTT8=
EXTT9=
EXTT10=
PLAYORDER=
